<svg xmlns="http://www.w3.org/2000/svg" xmlns:xlink="http://www.w3.org/1999/xlink" width="500" zoomAndPan="magnify" viewBox="0 0 375 374.999991" height="500" preserveAspectRatio="xMidYMid meet" version="1.0"><defs><g/><clipPath id="6bacb451f4"><path d="M 46.085938 31.957031 L 345.847656 31.957031 L 345.847656 331.714844 L 46.085938 331.714844 Z M 46.085938 31.957031 " clip-rule="nonzero"/></clipPath></defs><rect x="-37.5" width="450" fill="#ffffff" y="-37.499999" height="449.999989" fill-opacity="1"/><rect x="-37.5" width="450" fill="#ffffff" y="-37.499999" height="449.999989" fill-opacity="1"/><rect x="-37.5" width="450" fill="#ef8800" y="-37.499999" height="449.999989" fill-opacity="1"/><g clip-path="url(#6bacb451f4)"><path fill="#000000" d="M 195.964844 331.714844 C 155.949219 331.714844 118.269531 316.140625 89.996094 287.808594 C 61.660156 259.53125 46.085938 221.851562 46.085938 181.835938 C 46.085938 141.820312 61.660156 104.140625 89.996094 75.867188 C 118.269531 47.53125 155.949219 31.957031 195.964844 31.957031 C 235.980469 31.957031 273.660156 47.53125 301.9375 75.867188 C 330.269531 104.199219 345.847656 141.820312 345.847656 181.835938 C 345.847656 221.851562 330.269531 259.53125 301.9375 287.808594 C 273.660156 316.140625 235.980469 331.714844 195.964844 331.714844 M 195.964844 40.941406 C 158.347656 40.941406 122.941406 55.617188 96.347656 82.214844 C 69.75 108.8125 55.070312 144.214844 55.070312 181.835938 C 55.070312 219.457031 69.75 254.859375 96.347656 281.457031 C 122.941406 308.054688 158.347656 322.730469 195.964844 322.730469 C 233.585938 322.730469 268.988281 308.054688 295.585938 281.457031 C 322.183594 254.859375 336.859375 219.457031 336.859375 181.835938 C 336.859375 144.214844 322.183594 108.8125 295.585938 82.214844 C 268.988281 55.617188 233.585938 40.941406 195.964844 40.941406 " fill-opacity="1" fill-rule="nonzero"/></g><g fill="#000000" fill-opacity="1"><g transform="translate(110.132196, 252.434127)"><g><path d="M 31.980469 -131.878906 C 16.648438 -131.878906 8.242188 -123.636719 8.242188 -108.140625 L 8.242188 -69.238281 C 8.242188 -66.105469 9.726562 -64.125 12.695312 -63.136719 L 51.761719 -50.277344 L 51.761719 -28.355469 C 51.761719 -23.902344 49.453125 -21.761719 45.167969 -21.761719 L 37.257812 -21.761719 C 33.136719 -21.761719 30.660156 -23.902344 30.660156 -28.355469 L 30.660156 -41.046875 C 30.660156 -42.859375 29.835938 -43.683594 28.023438 -43.683594 L 10.878906 -43.683594 C 9.230469 -43.683594 8.242188 -42.859375 8.242188 -41.046875 L 8.242188 -23.738281 C 8.242188 -8.242188 16.648438 0 31.980469 0 L 50.445312 0 C 65.941406 0 74.183594 -8.242188 74.183594 -23.738281 L 74.183594 -61.820312 C 74.183594 -64.949219 72.699219 -66.765625 69.894531 -67.917969 L 30.660156 -80.777344 L 30.660156 -103.527344 C 30.660156 -107.8125 33.136719 -110.121094 37.257812 -110.121094 L 45.167969 -110.121094 C 49.621094 -110.121094 51.761719 -107.8125 51.761719 -103.527344 L 51.761719 -90.667969 C 51.761719 -89.019531 52.753906 -88.03125 54.402344 -88.03125 L 71.542969 -88.03125 C 73.359375 -88.03125 74.183594 -89.019531 74.183594 -90.667969 L 74.183594 -108.140625 C 74.183594 -123.636719 65.941406 -131.878906 50.445312 -131.878906 Z M 31.980469 -131.878906 "/></g></g></g><g fill="#000000" fill-opacity="1"><g transform="translate(200.668337, 250.353089)"><g><path d="M 31.980469 -131.878906 C 16.648438 -131.878906 8.242188 -123.636719 8.242188 -108.140625 L 8.242188 -69.238281 C 8.242188 -66.105469 9.726562 -64.125 12.695312 -63.136719 L 51.761719 -50.277344 L 51.761719 -28.355469 C 51.761719 -23.902344 49.453125 -21.761719 45.167969 -21.761719 L 37.257812 -21.761719 C 33.136719 -21.761719 30.660156 -23.902344 30.660156 -28.355469 L 30.660156 -41.046875 C 30.660156 -42.859375 29.835938 -43.683594 28.023438 -43.683594 L 10.878906 -43.683594 C 9.230469 -43.683594 8.242188 -42.859375 8.242188 -41.046875 L 8.242188 -23.738281 C 8.242188 -8.242188 16.648438 0 31.980469 0 L 50.445312 0 C 65.941406 0 74.183594 -8.242188 74.183594 -23.738281 L 74.183594 -61.820312 C 74.183594 -64.949219 72.699219 -66.765625 69.894531 -67.917969 L 30.660156 -80.777344 L 30.660156 -103.527344 C 30.660156 -107.8125 33.136719 -110.121094 37.257812 -110.121094 L 45.167969 -110.121094 C 49.621094 -110.121094 51.761719 -107.8125 51.761719 -103.527344 L 51.761719 -90.667969 C 51.761719 -89.019531 52.753906 -88.03125 54.402344 -88.03125 L 71.542969 -88.03125 C 73.359375 -88.03125 74.183594 -89.019531 74.183594 -90.667969 L 74.183594 -108.140625 C 74.183594 -123.636719 65.941406 -131.878906 50.445312 -131.878906 Z M 31.980469 -131.878906 "/></g></g></g><path stroke-linecap="butt" transform="matrix(12.784395, 0, 0, 12.749999, 53.656626, 187.499988)" fill="none" stroke-linejoin="miter" d="M -0.0000293934 0.000000965686 L 8.859038 0.000000965686 " stroke="#000000" stroke-width="1" stroke-opacity="1" stroke-miterlimit="4"/><path stroke-linecap="butt" transform="matrix(12.801243, 0, 0, 12.749999, 253.747577, 187.499988)" fill="none" stroke-linejoin="miter" d="M -0.000115839 0.000000965686 L 7.089955 0.000000965686 " stroke="#000000" stroke-width="1" stroke-opacity="1" stroke-miterlimit="4"/><path stroke-linecap="butt" transform="matrix(0.000000000000000782, -12.763191, 12.749999, 0.000000000000000781, 196.08087, 331.950739)" fill="none" stroke-linejoin="miter" d="M 0.000119112 0.0000910766 L 23.094486 0.0000910766 " stroke="#000000" stroke-width="1" stroke-opacity="1" stroke-miterlimit="4"/><path stroke-linecap="butt" transform="matrix(9.723666, 8.283049, -8.267903, 9.705886, 250.793016, 234.961537)" fill="none" stroke-linejoin="miter" d="M -0.0000332714 -0.0000334109 L 5.519615 -0.000112738 " stroke="#000000" stroke-width="1" stroke-opacity="1" stroke-miterlimit="4"/><path stroke-linecap="butt" transform="matrix(9.987884, -8.04337, 7.996989, 9.93029, 86.83352, 280.594287)" fill="none" stroke-linejoin="miter" d="M -0.0000641685 -0.00010607 L 4.913284 -0.0000718043 " stroke="#000000" stroke-width="1" stroke-opacity="1" stroke-miterlimit="4"/><path stroke-linecap="butt" transform="matrix(10.457454, 7.324841, -7.314744, 10.443036, 82.136111, 89.651061)" fill="none" stroke-linejoin="miter" d="M 0.0000966429 0.0000550935 L 5.991871 -0.000143728 " stroke="#000000" stroke-width="1" stroke-opacity="1" stroke-miterlimit="4"/><path stroke-linecap="butt" transform="matrix(9.881106, -8.105164, 8.086099, 9.857864, 257.790573, 132.376955)" fill="none" stroke-linejoin="miter" d="M -0.000188247 0.0000432115 L 5.457743 -0.0000437195 " stroke="#000000" stroke-width="1" stroke-opacity="1" stroke-miterlimit="4"/></svg>