<?xml version="1.0" standalone="no"?>
<!DOCTYPE svg PUBLIC "-//W3C//DTD SVG 20010904//EN"
 "http://www.w3.org/TR/2001/REC-SVG-20010904/DTD/svg10.dtd">
<svg version="1.0" xmlns="http://www.w3.org/2000/svg"
 width="64.000000pt" height="64.000000pt" viewBox="0 0 64.000000 64.000000"
 preserveAspectRatio="xMidYMid meet">

<g transform="translate(0.000000,64.000000) scale(0.100000,-0.100000)"
fill="currentColor" stroke="none">
<path d="M275 551 c-44 -19 -70 -60 -70 -111 0 -51 27 -93 70 -110 l20 -8 -20
-6 c-79 -26 -138 -88 -151 -158 -5 -33 -4 -38 13 -38 14 0 22 11 31 44 14 52
66 102 117 112 85 16 166 -33 187 -112 9 -33 17 -44 31 -44 17 0 18 5 13 38
-13 70 -72 132 -151 158 l-20 6 20 8 c44 17 70 59 70 111 0 41 -5 53 -31 80
-33 33 -92 46 -129 30z m100 -56 c50 -49 15 -135 -55 -135 -41 0 -80 39 -80
80 0 41 39 80 80 80 19 0 40 -9 55 -25z"/>
</g>
</svg>
